<svg xmlns="http://www.w3.org/2000/svg" width="755.571" height="706.163" viewBox="0 0 755.571 706.163">
  <g id="Group_1" data-name="Group 1" transform="translate(-34.112 -48.229)">
    <path id="Path_1" data-name="Path 1" d="M232.493,479.778l64.906,1.209-.636-176.9-61.179-.882C233.535,375.4,231.738,452.611,232.493,479.778Z" transform="translate(147.129 226.445)" fill="#210028"/>
    <path id="Path_2" data-name="Path 2" d="M291.044,225.2c-9.445,2.477-13.126,5.562-24.558,9.431,0,0-13.306-4.763-25.085-10.171-.428,12.512-8.675,88.843-10.616,157.264l71.4,1.917-5.691-159.357Z" transform="translate(145.846 160.341)" fill="#e9eff4"/>
    <path id="Path_3" data-name="Path 3" d="M247.007,219.406c-2.914,9.535-7.257,18.626-8.334,30.951-.919,10.522,8.756,17.386,19.425,17.977,13.385.741,23.733-4.778,25.113-14.436.548-3.841-2.582-33.9-4.75-33.937Z" transform="translate(152.403 156.254)" fill="#ba825b"/>
    <path id="Path_4" data-name="Path 4" d="M245.823,219.931c-1.562,5.074-3.984,12.883-5.84,18.508,4.214,4.53,9.892,6.832,16.485,7.758,8.152,1.145,16.645-1.275,24.216-7.069-1.593-17.693-2.413-23.169-3.37-18.76,0,0-28.65-.505-31.245-.551Z" transform="translate(153.55 155.846)" fill="#916241"/>
    <path id="Path_5" data-name="Path 5" d="M246.618,157.754c.95,1.663,1.239-56.935,1.239-56.935l14.66-14.732s-4.956-6.571-12.874-1.2c-6.073,4.12-8.308,4.748-8.308,4.748L195.944,120.25s-5.831,26.517-10.926,46.141Z" transform="translate(107.511 41.811)" fill="#ba825b"/>
    <path id="Path_6" data-name="Path 6" d="M186.224,138.344l59.812-3.7c.285-5.935.48-17.8.606-28.839l-59.417,28.45Q186.727,136.3,186.224,138.344Z" transform="translate(108.521 61.101)" fill="#916241"/>
    <path id="Path_7" data-name="Path 7" d="M233.447,86.622l-5.236-30.03-3.35,8.658-9.831-7.52L220.1,87.164Z" transform="translate(132.649 19.88)" fill="#cfdae2"/>
    <path id="Path_8" data-name="Path 8" d="M237.269,80.949,209.9,59.077l4.619,14.13L203.887,74.27l25.435,17.274Z" transform="translate(123.316 21.961)" fill="#cfdae2"/>
    <path id="Path_9" data-name="Path 9" d="M347.1,58.1,188.765,164.44s-12.953-4.311-10.206-19.214l152.255-104S346.915,43.121,347.1,58.1Z" transform="translate(101.781 7.006)" fill="#d2b355"/>
    <path id="Path_10" data-name="Path 10" d="M227.288,67.97l14.376,19.1-13.981,9.721-12.97-19.817Z" transform="translate(132.384 29.41)" fill="#e9eff4"/>
    <path id="Path_11" data-name="Path 11" d="M207.312,75.206a5.2,5.2,0,0,1,7.4,4.182l.779,7.685a4.623,4.623,0,0,1-3,4.9h0a4.645,4.645,0,0,1-5.9-3.291l-2.069-7.356a5.205,5.205,0,0,1,2.788-6.117Z" transform="translate(123.686 35.05)" fill="#ba825b"/>
    <path id="Path_12" data-name="Path 12" d="M202.579,78.9a5.207,5.207,0,0,1,7.4,4.184l.779,7.683a4.625,4.625,0,0,1-3,4.9h0a4.643,4.643,0,0,1-5.9-3.291l-2.071-7.354a5.209,5.209,0,0,1,2.789-6.119Z" transform="translate(119.721 38.143)" fill="#ba825b"/>
    <path id="Path_13" data-name="Path 13" d="M197.845,82.593a5.208,5.208,0,0,1,7.4,4.182l.777,7.685a4.622,4.622,0,0,1-3,4.9h0a4.645,4.645,0,0,1-5.9-3.291l-2.069-7.356a5.207,5.207,0,0,1,2.788-6.117Z" transform="translate(115.756 41.237)" fill="#ba825b"/>
    <path id="Path_14" data-name="Path 14" d="M193.112,86.287a5.205,5.205,0,0,1,7.4,4.182l.779,7.685a4.626,4.626,0,0,1-3,4.9h0a4.646,4.646,0,0,1-5.9-3.291L190.323,92.4a5.207,5.207,0,0,1,2.79-6.117Z" transform="translate(111.791 44.331)" fill="#ba825b"/>
    <path id="Path_15" data-name="Path 15" d="M276.776,231.3a169.717,169.717,0,0,0-63.39-15.18l-17.246,239.9-7.589,95.2,80.6,1.5C267.68,499.805,275.9,257.015,276.776,231.3Z" transform="translate(110.471 153.502)" fill="#2b3038"/>
    <path id="Path_16" data-name="Path 16" d="M253.077,226.966s-4.486,35.526-7.935,76.919S241,494.286,241,494.286l-14.833-6.553s-.689-140.042.691-184.883,18.549-78.468,18.549-78.468Z" transform="translate(141.837 160.422)" fill="#d2b355"/>
    <path id="Path_17" data-name="Path 17" d="M271.7,314.533l-6.4-103.005a40.533,40.533,0,0,1,0-5.088l5.7-89.9A433.463,433.463,0,0,0,183.4,126.2s-4.14,127.624-3.449,160.737,20.006,84.164,33.112,107.619L235.83,378.69Z" transform="translate(103.203 70.094)" fill="#2b3038"/>
    <path id="Path_18" data-name="Path 18" d="M358.582,94.457a3.305,3.305,0,0,0-6.466-1.128l-3.067,10.223.579-17.036a3.873,3.873,0,0,0-7.705-.678l-2.187,15.3-1.681-17.948a4.918,4.918,0,0,0-9.794.013l-1.286,14.14-1.963-15.7a4.5,4.5,0,0,0-8.936-.015l-3.2,24.878c-1.125-.917-2.6-2.2-4.493-4.028-6.891-6.639-12.891-1.007-12.891-1.007l11.943,17.011s-9.671,57.793-8.453,56.317l59.237,18.979c-1.268-15.18.222-43.728-.2-52.28Z" transform="translate(200.048 37.554)" fill="#ba825b"/>
    <path id="Path_19" data-name="Path 19" d="M356.959,148.5,298.644,134.69c.728-5.9,2.552-17.626,4.3-28.523L356.666,144.3Q356.807,146.4,356.959,148.5Z" transform="translate(202.685 61.404)" fill="#916241"/>
    <path id="Path_20" data-name="Path 20" d="M269.2,551.273l113.88,2.119-51.049-333.2s-16.665-4.789-64.5,7.76H265.98Z" transform="translate(175.326 156.159)" fill="#2b3038"/>
    <path id="Path_21" data-name="Path 21" d="M261.757,226.355s3.622,30.01,7.242,73.988,0,146.422,0,146.422l.518,68.3,21.213-2.586s-2.069-81.231-2.587-141.768-2.069-85.888-5.173-108.652-13.453-37.77-13.453-37.77Z" transform="translate(171.788 160.341)" fill="#d2b355"/>
    <path id="Path_22" data-name="Path 22" d="M277.9,321.187S298.6,208.74,298.6,205.98s3.449-92.441,3.449-92.441,63.122,7.933,87.957,21.386c0,0-8.278,96.235-12.073,139.351-2.6,29.582-18.626,96.581-55.878,119.347Z" transform="translate(185.309 67.579)" fill="#2b3038"/>
    <path id="Path_23" data-name="Path 23" d="M276.365,254.615l-63.037-28.83s62.06-37.625,76.231-43c0,0,52.774,36.16,64.5,46.423l-65.479,26.386Z" transform="translate(131.224 125.578)" fill="#090909"/>
    <path id="Path_24" data-name="Path 24" d="M275.879,227.187l-1.347-.3c3.525-16.031-5.526-33.84-5.616-34.018l1.224-.632C270.234,192.423,279.51,210.663,275.879,227.187Z" transform="translate(177.785 133.5)" fill="#d2b355"/>
    <path id="Path_25" data-name="Path 25" d="M270.033,217a61.565,61.565,0,0,0,.878,7.784,13.972,13.972,0,0,1-.821,7.692,6.223,6.223,0,0,1,2.948.375,22.817,22.817,0,0,0-.362-7.494,8.012,8.012,0,0,1,1.825,7.6l2.161-.2c.72-.068,1.189-7.317,1.228-8.113a41.026,41.026,0,0,0-.491-8.646c-.331-2.01-.48-5.425-3.208-5.259C271.075,210.921,270.057,214.438,270.033,217Z" transform="translate(178.72 148.981)" fill="#d2b355"/>
    <path id="Path_26" data-name="Path 26" d="M240.2,227.158a17.2,17.2,0,0,0,17.325,18.914l6.5-.079a17.2,17.2,0,0,0,16.836-14.859l-.553-25.388-36.16-1.955Z" transform="translate(153.662 143.174)" fill="#ba825b"/>
    <path id="Path_27" data-name="Path 27" d="M244.752,210.407s-8.278-3.1-7.762,7.244c.34,6.8,6.209,6.726,6.209,6.726Z" transform="translate(151.024 148.351)" fill="#ba825b"/>
    <path id="Path_28" data-name="Path 28" d="M240.811,203.259l-1.955,12.216h5.377s4.4-8.308,8.306-11.239Z" transform="translate(152.606 142.729)" fill="#210028"/>
    <path id="Path_29" data-name="Path 29" d="M258.8,203.791s1.955,10.261,4.886,12.216a12.476,12.476,0,0,1,4.4,0l.489-11.728Z" transform="translate(169.312 143.174)" fill="#210028"/>
    <path id="Path_30" data-name="Path 30" d="M261.967,210.475s5.377-.978,6.841,3.909-4.333,11.219-6.841,8.8S261.967,210.475,261.967,210.475Z" transform="translate(171.031 148.706)" fill="#ba825b"/>
    <path id="Path_31" data-name="Path 31" d="M243.495,212.9c2.24-.614,14.192-3.216,42.116,1.584l.487-13.194s-26.041-5.57-47.054-.684v13.453l3.4-.948A8.9,8.9,0,0,0,243.495,212.9Z" transform="translate(152.764 138.829)" fill="#333842"/>
    <path id="Path_32" data-name="Path 32" d="M248.994,213.258a1.6,1.6,0,1,1-1.6-1.6A1.6,1.6,0,0,1,248.994,213.258Z" transform="translate(158.424 149.766)" fill="#090909"/>
    <ellipse id="Ellipse_1" data-name="Ellipse 1" cx="1.597" cy="1.597" rx="1.597" ry="1.597" transform="translate(420.565 361.428)" fill="#090909"/>
    <path id="Path_33" data-name="Path 33" d="M251.459,210.582a.908.908,0,0,1-.41-.1,6.485,6.485,0,0,0-5.7-.017.919.919,0,0,1-.889-1.608,8.329,8.329,0,0,1,7.411-.018.918.918,0,0,1-.412,1.74Z" transform="translate(156.905 146.679)" fill="#090909"/>
    <path id="Path_34" data-name="Path 34" d="M260.846,210.582a.927.927,0,0,1-.412-.1,6.515,6.515,0,0,0-5.695-.018.919.919,0,1,1-.895-1.606,8.353,8.353,0,0,1,7.413-.018.919.919,0,0,1-.412,1.74Z" transform="translate(164.765 146.68)" fill="#090909"/>
    <path id="Path_35" data-name="Path 35" d="M253.69,223.278a.687.687,0,0,1-.682-.6l-1.38-10a.688.688,0,1,1,1.363-.187l1.38,10a.689.689,0,0,1-.59.777A.766.766,0,0,1,253.69,223.278Z" transform="translate(163.299 149.965)" fill="#090909"/>
    <path id="Path_36" data-name="Path 36" d="M241.343,215.621l37.6-.345s-.2,8.683-1.937,14.853a6.667,6.667,0,0,1-6.443,4.807H248.877a6.688,6.688,0,0,1-6.571-5.314A54.122,54.122,0,0,1,241.343,215.621Z" transform="translate(154.605 152.794)" fill="#e9eff4"/>
    <path id="Path_37" data-name="Path 37" d="M242.655,222.411a.918.918,0,0,1-.913-.831l-1.035-10.866a.918.918,0,0,1,.827-1,.9.9,0,0,1,1,.827l1.035,10.866a.917.917,0,0,1-.827,1A.711.711,0,0,1,242.655,222.411Z" transform="translate(154.153 148.129)" fill="#e9eff4"/>
    <path id="Path_38" data-name="Path 38" d="M261.471,224.34a.949.949,0,0,1-.213-.024.922.922,0,0,1-.68-1.108l3.1-12.937a.919.919,0,0,1,1.788.43l-3.1,12.935A.918.918,0,0,1,261.471,224.34Z" transform="translate(170.779 148.012)" fill="#e9eff4"/>
    <path id="Path_39" data-name="Path 39" d="M198.475,284.548H193.26s2.608,14.993-15.644,24.12-51.5,22.162-41.719,70.4H268.225S280.766,374.548,278,339.3c-2.608-33.244-16.3-36.5-18.905-64.535Z" transform="translate(64.89 202.627)" fill="#210028"/>
    <path id="Path_40" data-name="Path 40" d="M242.686,331.245l-77.343-5.156-21.184,182.46h83.179C231.221,471.786,240.315,382.538,242.686,331.245Z" transform="translate(73.287 245.612)" fill="#e9eff4"/>
    <path id="Path_41" data-name="Path 41" d="M186.714,293.236l-26.906,62.087s-6.246,50.312,22.766,51.74c42.081,2.069,41.392-48.29,41.392-48.29V303.584Z" transform="translate(85.921 218.094)" fill="#e1c4b2"/>
    <path id="Path_42" data-name="Path 42" d="M168.973,316.338c5.972,9.3,19.416,21.985,46.842,16.559V303.584l-37.252-10.348Z" transform="translate(94.072 218.094)" fill="#bf8e88"/>
    <path id="Path_43" data-name="Path 43" d="M146.159,205.866c1.16,1.792-2.132-63.443-2.132-63.443l15.406-17.3s-5.921-7.009-14.4-.54c-6.505,4.96-8.953,5.8-8.953,5.8l-48.63,36.872s-4.855,29.872-9.315,52.028Z" transform="translate(17.984 74.532)" fill="#e1c4b2"/>
    <path id="Path_44" data-name="Path 44" d="M79.18,187.692l66.343-7.806c-.05-6.625-.564-19.844-1.1-32.136L80.044,183.078Q79.616,185.391,79.18,187.692Z" transform="translate(18.861 96.234)" fill="#bf8e88"/>
    <path id="Path_45" data-name="Path 45" d="M129.432,125.886l-7.68-33.1-3.194,9.842-11.406-7.763,7.456,32.447Z" transform="translate(42.29 50.196)" fill="#cfdae2"/>
    <path id="Path_46" data-name="Path 46" d="M132.941,119.134,101.128,96.48l6.013,15.442L95.375,113.76l29.373,17.656Z" transform="translate(32.425 53.29)" fill="#cfdae2"/>
    <path id="Path_47" data-name="Path 47" d="M251.181,91.057,81.513,219.172s-14.682-4-12.543-20.756L232.011,73.273S250.047,74.394,251.181,91.057Z" transform="translate(10.13 33.852)" fill="#d2b355"/>
    <path id="Path_48" data-name="Path 48" d="M121.205,105.49l17.178,20.371-14.96,11.681-15.658-21.256Z" transform="translate(42.804 60.837)" fill="#e9eff4"/>
    <path id="Path_49" data-name="Path 49" d="M99.529,114.571a5.8,5.8,0,0,1,8.5,4.2l1.34,8.5a5.153,5.153,0,0,1-3.032,5.636h0a5.179,5.179,0,0,1-6.773-3.3l-2.756-8.06a5.805,5.805,0,0,1,2.725-6.981Z" transform="translate(33.36 67.853)" fill="#e1c4b2"/>
    <path id="Path_50" data-name="Path 50" d="M94.49,118.974a5.8,5.8,0,0,1,8.5,4.2l1.34,8.5a5.152,5.152,0,0,1-3.034,5.636h0a5.177,5.177,0,0,1-6.772-3.3l-2.758-8.06a5.8,5.8,0,0,1,2.727-6.981Z" transform="translate(29.138 71.541)" fill="#e1c4b2"/>
    <path id="Path_51" data-name="Path 51" d="M89.45,123.377a5.8,5.8,0,0,1,8.5,4.2l1.341,8.5a5.155,5.155,0,0,1-3.034,5.636h0a5.179,5.179,0,0,1-6.773-3.3l-2.756-8.058a5.8,5.8,0,0,1,2.727-6.981Z" transform="translate(24.916 75.229)" fill="#e1c4b2"/>
    <path id="Path_52" data-name="Path 52" d="M84.408,127.78a5.8,5.8,0,0,1,8.5,4.2l1.34,8.5a5.153,5.153,0,0,1-3.032,5.636h0a5.179,5.179,0,0,1-6.773-3.3l-2.756-8.058a5.8,5.8,0,0,1,2.725-6.981Z" transform="translate(20.694 78.917)" fill="#e1c4b2"/>
    <path id="Path_53" data-name="Path 53" d="M210.979,469.092,188.9,346.3,206.15,156.585,73.008,180.731s-13.8,166.256-15.177,236.621S94.392,582.921,94.392,582.921Z" transform="translate(0.948 103.634)" fill="#333842"/>
    <path id="Path_54" data-name="Path 54" d="M197.776,328.895" transform="translate(118.197 247.962)" fill="#ffbcc7"/>
    <path id="Path_55" data-name="Path 55" d="M216.291,330.167s13.01-3.64,37.155,37.752S324.5,505.2,324.5,505.2H221.712Z" transform="translate(133.706 248.96)" fill="#333842"/>
    <path id="Path_56" data-name="Path 56" d="M264.222,506.2l-6.808-155.985A19.965,19.965,0,0,0,238.8,331.164L204.772,328.9c-2.37,51.293-11.465,140.54-15.348,177.3Z" transform="translate(111.202 247.962)" fill="#333842"/>
    <path id="Path_57" data-name="Path 57" d="M189.985,324.77,98.923,344.776,71.328,509.653H205.162l21.184-182.459Z" transform="translate(12.284 244.508)" fill="#333842"/>
    <path id="Path_58" data-name="Path 58" d="M174.462,326.879l-21.184,182.46H133.272s2.069-131.075,28.974-184.193Z" transform="translate(64.168 244.822)" fill="#d2b355"/>
    <path id="Path_59" data-name="Path 59" d="M204.772,328.9,189.424,506.2h23.749s8.278-54.5,11.728-106.239-6.209-71.055-6.209-71.055Z" transform="translate(111.202 247.962)" fill="#d2b355"/>
    <path id="Path_60" data-name="Path 60" d="M228.252,319.784l92.564-22.163s-67.168-47.776-80.857-51.686c-59.329,23.455-99.709,55.6-105.576,63.42A604.019,604.019,0,0,0,228.252,319.784Z" transform="translate(65.099 178.474)" fill="#090909"/>
    <path id="Path_61" data-name="Path 61" d="M227.43,290.347l1.036,17.141c0,16.3-5.215,25.422-24.119,26.726l-5.728-.145a20.09,20.09,0,0,1-20.186-13.15c-1.784-4.974-6.062-14.1-7.332-22.557L169.147,276.2l52.8-3.912.406.588A28.677,28.677,0,0,1,227.43,290.347Z" transform="translate(94.218 200.547)" fill="#e1c4b2"/>
    <path id="Path_62" data-name="Path 62" d="M171.4,294.945l2.608,9.126s33.571-10.1,37.482-27.7l-42.044,6.843-.652,12.06Z" transform="translate(93.92 203.965)" fill="#210028"/>
    <path id="Path_63" data-name="Path 63" d="M174.071,284.814s-7.189.371-9.475,8.762,8.462,13.738,16.858,11.715Z" transform="translate(90.145 211.04)" fill="#e1c4b2"/>
    <path id="Path_64" data-name="Path 64" d="M168.447,295.293l65.838-7.17-3.259-21.511-66.49,5.215Z" transform="translate(90.355 195.793)" fill="#333842"/>
    <ellipse id="Ellipse_2" data-name="Ellipse 2" cx="2.035" cy="2.035" rx="2.035" ry="2.035" transform="translate(311.044 498.786)" fill="#090909"/>
    <path id="Path_65" data-name="Path 65" d="M184.131,289.63a2.035,2.035,0,1,0,2.2-1.856A2.035,2.035,0,0,0,184.131,289.63Z" transform="translate(106.762 213.513)" fill="#090909"/>
    <path id="Path_66" data-name="Path 66" d="M193.5,285.709a.918.918,0,0,1-.548-1.656,12.853,12.853,0,0,1,10.315-1.986.918.918,0,0,1-.478,1.773,11.209,11.209,0,0,0-8.743,1.687A.9.9,0,0,1,193.5,285.709Z" transform="translate(113.85 208.456)" fill="#090909"/>
    <path id="Path_67" data-name="Path 67" d="M181.761,286.933a.918.918,0,0,1-.548-1.656,12.848,12.848,0,0,1,10.316-1.983.919.919,0,0,1-.478,1.775,11.172,11.172,0,0,0-8.743,1.683A.922.922,0,0,1,181.761,286.933Z" transform="translate(104.013 209.483)" fill="#090909"/>
    <path id="Path_68" data-name="Path 68" d="M192.223,296.76a.919.919,0,0,1-.022-1.838l2.666-.07-4.19-6.255a.919.919,0,1,1,1.527-1.023l5.12,7.643a.92.92,0,0,1-.741,1.431l-4.335.112Z" transform="translate(112.122 213.01)" fill="#090909"/>
    <path id="Path_69" data-name="Path 69" d="M221.7,289.6l-43.355,5.465s2.808,13.771,2.273,21.18a126.544,126.544,0,0,0,40.609-2.7S225.469,303.406,221.7,289.6Z" transform="translate(101.925 215.045)" fill="#e9eff4"/>
    <path id="Path_70" data-name="Path 70" d="M189.529,301.63a.923.923,0,0,1-.546-.182l-19.144-14.19a.918.918,0,1,1,1.1-1.474l19.144,14.188a.92.92,0,0,1-.549,1.658Z" transform="translate(94.487 211.701)" fill="#e9eff4"/>
    <path id="Path_71" data-name="Path 71" d="M187.2,310.141a.917.917,0,0,1-.592-.217l-14.558-12.283a.918.918,0,1,1,1.183-1.4l14.558,12.284a.917.917,0,0,1-.592,1.619Z" transform="translate(96.373 220.427)" fill="#e9eff4"/>
    <path id="Path_72" data-name="Path 72" d="M234.525,317.039l-1.836-.1c1.516-28.81-19.271-57.069-19.48-57.352l1.474-1.1C214.9,258.78,236.076,287.557,234.525,317.039Z" transform="translate(131.124 188.993)" fill="#af923a"/>
    <path id="Path_73" data-name="Path 73" d="M221.273,301.634c.7,4.522,2.466,8.8,3.74,13.2s2.06,9.127.781,13.523a10.883,10.883,0,0,1,5.2-.195,39.955,39.955,0,0,0-2.764-12.841,14.027,14.027,0,0,1,5.322,12.6q1.836-.485,3.673-.969c1.226-.325-.037-12.983-.2-14.366a71.882,71.882,0,0,0-3.319-14.8c-1.145-3.378-2.376-9.234-7.045-8.166C221.335,290.838,220.582,297.205,221.273,301.634Z" transform="translate(137.697 214.958)" fill="#af923a"/>
    <path id="Path_74" data-name="Path 74" d="M230.789,412.7c3.106-15.006,3.622-16.04,7.762-31.1-2.721.013-4.934-2.488-5.526-5.145s.053-5.417.733-8.052a13.02,13.02,0,0,1-1.4,4.827,4.433,4.433,0,0,1-4.173,2.323c-1.189-4.541-.1-9.434,2.023-13.62,7.319-14.42,21.116-19.479,36.285-14.422,4.657,1.553,11.722,10.261,15,23.8,4.14,17.073,6.209,33.63,6.209,33.63Z" transform="translate(143.255 261.954)" fill="#e1c4b2"/>
    <path id="Path_75" data-name="Path 75" d="M280.082,359.7c-.018-.079-.042-.152-.061-.231l-48.906,33.463c-.5,2.249-1.053,4.853-1.738,8.161l56.914-7.762S284.222,376.769,280.082,359.7Z" transform="translate(144.667 273.567)" fill="#bf8e88"/>
    <path id="Path_76" data-name="Path 76" d="M215.112,391.145l96.581-22.076,13.8,103.479H222.7Z" transform="translate(132.718 281.612)" fill="#090909"/>
    <path id="Path_77" data-name="Path 77" d="M387.14,312.788l-80.094,14.679a18.4,18.4,0,0,0-14.365,23.191l52.442,182.077,240.761.684-78.49-206.633a47.181,47.181,0,0,0-54.786-29.205Z" transform="translate(197.083 220.702)" fill="#fff"/>
    <path id="Path_78" data-name="Path 78" d="M327.079,304.753l11.038,40.7,23.455-3.449L390.546,328.9l-27.594-52.43Z" transform="translate(226.502 204.049)" fill="#d1a180"/>
    <path id="Path_79" data-name="Path 79" d="M373.315,296.16l-10.364-19.692-35.872,28.284,4.094,15.1C340.6,322.772,356.04,321.544,373.315,296.16Z" transform="translate(226.503 204.049)" fill="#ba825b"/>
    <path id="Path_80" data-name="Path 80" d="M335.174,308.07l27.6,9.658-2.76,24.144-35.183-30.354S327.586,302.552,335.174,308.07Z" transform="translate(224.615 229.016)" fill="#e9eff4"/>
    <path id="Path_81" data-name="Path 81" d="M345.474,323.514l27.594-24.145,7.589,12.417L364.1,340.07Z" transform="translate(241.91 223.231)" fill="#e9eff4"/>
    <path id="Path_82" data-name="Path 82" d="M413.413,519.78,345.118,312.822l1.31-.431L414.723,519.35Z" transform="translate(241.612 234.138)" fill="#e9eff4"/>
    <path id="Path_83" data-name="Path 83" d="M364.9,525.457l5.449-21.72,8.047,21.72h95.851L391.9,305.766l-41.056,10.658c-26.912,8.256-33.7,13.753-39.479,24.925-2.63,5.087-4.872,10.469-7.121,15.394L243.215,525.457Z" transform="translate(156.257 228.589)" fill="#333842"/>
    <path id="Path_84" data-name="Path 84" d="M389.282,525.457h24.65L331.585,305.766l-16.209,3.646c-.4,3.422-.415,13.69,5.132,42.564C327.386,387.778,379.914,504.759,389.282,525.457Z" transform="translate(216.572 228.589)" fill="#d2b355"/>
    <path id="Path_85" data-name="Path 85" d="M394.156,177.288c-.518,2.069-7.762-60.536-7.762-60.536l-20.179-11.382s3.333-8.547,13.453-5.173c7.76,2.586,10.347,2.586,10.347,2.586l57.949,19.144s11.9,34.148,17.073,50.705Z" transform="translate(259.283 55.743)" fill="#d1a180"/>
    <path id="Path_86" data-name="Path 86" d="M366.568,106.178l-3.449-33.8,6.209,8.278,8.278-11.038,3.449,33.113Z" transform="translate(256.689 30.788)" fill="#cfdae2"/>
    <path id="Path_87" data-name="Path 87" d="M367.623,100.974,390.389,69.24,389.7,85.8l11.728-2.07-22.076,26.215Z" transform="translate(260.463 30.474)" fill="#cfdae2"/>
    <path id="Path_88" data-name="Path 88" d="M310.179,89.445l202.006,66.288s12.6-8.536,5.149-23.7L322.559,66.414S305.855,73.312,310.179,89.445Z" transform="translate(211.748 28.107)" fill="#d2b355"/>
    <path id="Path_89" data-name="Path 89" d="M371.65,83.131l-9.658,24.835,17.936,6.209,7.933-25.18Z" transform="translate(255.746 42.108)" fill="#e9eff4"/>
    <path id="Path_90" data-name="Path 90" d="M389.191,85.975a5.8,5.8,0,0,0-6.678,6.724L384,101.179a5.154,5.154,0,0,0,4.693,4.35h0a5.179,5.179,0,0,0,5.34-5.314V91.7a5.8,5.8,0,0,0-4.84-5.722Z" transform="translate(272.859 44.421)" fill="#d1a180"/>
    <path id="Path_91" data-name="Path 91" d="M395.386,88.509a5.8,5.8,0,0,0-6.68,6.724l1.485,8.481a5.154,5.154,0,0,0,4.7,4.35h0a5.177,5.177,0,0,0,5.338-5.314V94.231a5.8,5.8,0,0,0-4.838-5.722Z" transform="translate(278.048 46.544)" fill="#d1a180"/>
    <path id="Path_92" data-name="Path 92" d="M401.58,91.043a5.8,5.8,0,0,0-6.68,6.724l1.485,8.481a5.156,5.156,0,0,0,4.7,4.35h0a5.179,5.179,0,0,0,5.34-5.314V96.765a5.8,5.8,0,0,0-4.84-5.722Z" transform="translate(283.236 48.666)" fill="#d1a180"/>
    <path id="Path_93" data-name="Path 93" d="M407.774,93.577A5.8,5.8,0,0,0,401.1,100.3l1.485,8.481a5.154,5.154,0,0,0,4.693,4.35h0a5.179,5.179,0,0,0,5.34-5.314V99.3a5.8,5.8,0,0,0-4.84-5.722Z" transform="translate(288.425 50.789)" fill="#d1a180"/>
    <path id="Path_94" data-name="Path 94" d="M445.709,669.519h85.364l-50.735-129.2,36.247-204a83.089,83.089,0,0,0,.86-17.781L506.238,134.187l-131.764,4.138,24.835,190.4a34.972,34.972,0,0,1-4.063,18.56l-31.684,79.1c5.123,6.882,33.1,45.659,47.475,90.669C425.387,561.982,442.557,652.6,445.709,669.519Z" transform="translate(257.061 84.874)" fill="#333842"/>
    <path id="Path_95" data-name="Path 95" d="M365.593,326.76l61.124,209.568h21.564c-3.151-16.917-20.322-107.537-34.672-152.459-14.377-45.01-42.351-83.788-47.475-90.669l-5.645,14.094Z" transform="translate(254.488 218.064)" fill="#d2b355"/>
    <path id="Path_96" data-name="Path 96" d="M358.025,317.468l-69.967-40.246,89.3-59.976s70.709,59.845,90.026,79.851c-55.106,20.432-87.685,27.8-87.685,27.8Z" transform="translate(193.818 154.445)" fill="#090909"/>
    <path id="Path_97" data-name="Path 97" d="M332.537,253.362a31.948,31.948,0,0,0-14.754,21.206c-1.755,8.811-4.022,20.664-5.083,28.082-1.858,13,22.909,37.151,46.438,18.575s23.529-48.913,23.529-48.913S356.661,238.876,332.537,253.362Z" transform="translate(214.376 181.647)" fill="#d1a180"/>
    <path id="Path_98" data-name="Path 98" d="M352.832,270.775s8.668,0,8.668,9.908-11.764,12.382-19.194,9.287Z" transform="translate(239.257 199.281)" fill="#d1a180"/>
    <path id="Path_99" data-name="Path 99" d="M331.208,260.326s18.626,17.591,24.835,20v11.039l11.382-10.693,3.106-14.831Z" transform="translate(229.961 190.529)" fill="#090909"/>
    <path id="Path_100" data-name="Path 100" d="M382.84,289.129l-67.489-19.194,8.049-24.767,66.251,17.956Z" transform="translate(216.679 177.832)" fill="#333842"/>
    <path id="Path_101" data-name="Path 101" d="M376.038,274.779c-3.344-4.829-1.882-11.68-.469-18.306,1.358-6.362,2.639-12.371-.2-16.158-5.761-7.679-17.676-4.464-17.8-4.43l-2.328-2.328c.56-.147,15.1-3.016,21.6,5.658,3.339,4.454,1.909,11.158.527,17.641-1.33,6.246-2.709,12.7.184,16.88Z" transform="translate(250.085 167.628)" fill="#d2b355"/>
    <path id="Path_102" data-name="Path 102" d="M370.669,268.155c3.508,2.94,7.65,5,11.5,7.473s7.558,5.515,9.489,9.666a10.9,10.9,0,0,1,3.785-3.569,40.022,40.022,0,0,0-10.535-7.847,14.029,14.029,0,0,1,12.3,5.983q1.064-1.574,2.126-3.148c.709-1.051-8.572-9.749-9.6-10.686a71.823,71.823,0,0,0-12.238-8.955c-3.085-1.79-7.869-5.388-10.68-1.511C363.61,259.987,367.234,265.275,370.669,268.155Z" transform="translate(258.747 185.09)" fill="#d2b355"/>
    <path id="Path_103" data-name="Path 103" d="M322.608,271.676a2.2,2.2,0,1,1-2.2-2.2A2.2,2.2,0,0,1,322.608,271.676Z" transform="translate(219.073 198.193)" fill="#090909"/>
    <path id="Path_104" data-name="Path 104" d="M334.291,274.138a2.2,2.2,0,1,1-2.2-2.2A2.2,2.2,0,0,1,334.291,274.138Z" transform="translate(228.86 200.257)" fill="#090909"/>
    <path id="Path_105" data-name="Path 105" d="M328.152,269.213a.917.917,0,0,1-.608-.23,12.146,12.146,0,0,0-9.318-2.631.919.919,0,0,1-.325-1.808,13.832,13.832,0,0,1,10.86,3.061.919.919,0,0,1-.608,1.608Z" transform="translate(218.183 193.942)" fill="#090909"/>
    <path id="Path_106" data-name="Path 106" d="M340.684,271.606a.91.91,0,0,1-.608-.23,12.081,12.081,0,0,0-9.317-2.63.937.937,0,0,1-1.069-.741.921.921,0,0,1,.741-1.069A13.839,13.839,0,0,1,341.292,270a.918.918,0,0,1-.608,1.608Z" transform="translate(228.677 195.947)" fill="#090909"/>
    <path id="Path_107" data-name="Path 107" d="M326.664,280.921a.954.954,0,0,1-.1-.006L321.9,280.4a.921.921,0,0,1-.616-1.488l6.207-7.76a.919.919,0,1,1,1.435,1.149l-5.166,6.457,3,.333a.919.919,0,0,1-.1,1.832Z" transform="translate(221.485 199.308)" fill="#090909"/>
    <path id="Path_108" data-name="Path 108" d="M314.149,273l46.567,7.76s-3.622,14.747-3.363,22.766a136.7,136.7,0,0,1-43.72-4.656S309.493,287.741,314.149,273Z" transform="translate(213.82 201.141)" fill="#e9eff4"/>
    <path id="Path_109" data-name="Path 109" d="M336.648,284.776a.92.92,0,0,1-.391-1.751L359.28,272.16a.919.919,0,1,1,.783,1.663l-23.023,10.864A.921.921,0,0,1,336.648,284.776Z" transform="translate(233.748 200.369)" fill="#e9eff4"/>
    <path id="Path_110" data-name="Path 110" d="M336.506,295.62a.918.918,0,0,1-.549-1.654l16.555-12.419a.92.92,0,1,1,1.1,1.472l-16.557,12.419A.918.918,0,0,1,336.506,295.62Z" transform="translate(233.63 208.151)" fill="#e9eff4"/>
    <path id="Path_111" data-name="Path 111" d="M431.1,182.1l-2.007-7.071a39.646,39.646,0,0,0,27.393-29.567,27.646,27.646,0,0,0,.551-7.417,18.55,18.55,0,0,1-2.451,2.11,15.405,15.405,0,0,1-11.391,2.615,11.707,11.707,0,0,1-7.76-4.778,11.365,11.365,0,0,1-1.06-10.585,13.427,13.427,0,0,1,8.969-8.341,15.828,15.828,0,0,1,13.67,3.321,79.516,79.516,0,0,0-3.723-54.084L460,65.3a86.952,86.952,0,0,1,3.885,59.774c-.414,1.378-.895,2.846-1.492,4.335,2.189,4.886,2.641,10.9,1.3,17.522A47.156,47.156,0,0,1,431.1,182.1Zm15.688-56.113a6.62,6.62,0,0,0-1.624.2,6.077,6.077,0,0,0-3.9,3.795,4.289,4.289,0,0,0,.219,3.828,4.453,4.453,0,0,0,2.971,1.718,8.142,8.142,0,0,0,5.851-1.345,13.615,13.615,0,0,0,3.774-4.386A10,10,0,0,0,446.788,125.991Z" transform="translate(311.951 27.173)" fill="#c3a54c"/>
    <path id="Path_112" data-name="Path 112" d="M333.013,206.843a28.6,28.6,0,0,0-3.785-5.959c-5.684-6.841-14.423-10.574-23.676-14.526l-2.859-1.228c-11.013-4.765-23.04-11.23-28.735-23.049-3.1-6.439-4.144-14.238-3.089-23.174l10.95,1.292c-.8,6.823-.108,12.575,2.071,17.1,4.124,8.56,14.034,13.76,23.181,17.718l2.813,1.206c10.048,4.294,20.44,8.732,27.823,17.621a39.831,39.831,0,0,1,5.256,8.251Z" transform="translate(179.086 88.827)" fill="#d2b355"/>
    <path id="Path_113" data-name="Path 113" d="M109.587,234.387l-8.71-6.761a53.259,53.259,0,0,1,19.109-15.37c6.709-3.192,13.793-4.84,20.646-6.433,2.479-.579,4.962-1.154,7.413-1.8,31.916-8.469,41.107-26.711,43.577-34.161l10.465,3.469c-6.415,19.343-25.081,34.415-51.212,41.348-2.591.687-5.211,1.3-7.746,1.887-6.569,1.527-12.773,2.971-18.407,5.651A42.164,42.164,0,0,0,109.587,234.387Z" transform="translate(37.034 114.752)" fill="#d2b355"/>
    <path id="Path_114" data-name="Path 114" d="M74.691,184.675a27.291,27.291,0,0,1-22.22-20.781,25.562,25.562,0,0,1-.529-6.292,17.074,17.074,0,0,1-2.235-2.08c-3.5-3.9-5.382-9.515-5.314-15.8a33.223,33.223,0,0,1,14.53-26.89l4.092,6.1A26.131,26.131,0,0,0,51.743,139.8a17.487,17.487,0,0,0,2.06,8.9,27.062,27.062,0,0,1,10.349-12.893c5.719-3.717,12.091-4.44,17.051-1.933l1.567.792.369,1.718c1.828,8.549-2.08,17.966-9.3,22.393a19.6,19.6,0,0,1-14.4,2.3c.057.434.132.864.222,1.29A19.725,19.725,0,0,0,75.713,177.4ZM59.944,153.62A12.346,12.346,0,0,0,70,152.512a13.96,13.96,0,0,0,6.224-12.637c-2.731-.507-5.834.643-8.063,2.095A20.049,20.049,0,0,0,59.944,153.62Z" transform="translate(-10.279 66.988)" fill="#ba9a3f"/>
    <path id="Path_115" data-name="Path 115" d="M98.472,340.02c-7.244-16.516-26.2-27.272-44.1-25.026L53,304.054c22.906-2.885,46.287,10.381,55.567,31.535Z" transform="translate(-3.066 226.827)" fill="#d2b355"/>
    <path id="Path_116" data-name="Path 116" d="M154.976,257.1a50.214,50.214,0,0,1,2.391-29.036l6.829,2.721a42.8,42.8,0,0,0-2.038,24.743Z" transform="translate(81.403 163.508)" fill="#c3a54c"/>
    <path id="Path_117" data-name="Path 117" d="M357.011,226.27l-3.964-6.189A33.312,33.312,0,0,0,367.9,189.347l7.315-.739A40.825,40.825,0,0,1,357.011,226.27Z" transform="translate(248.254 130.457)" fill="#c3a54c"/>
    <path id="Path_118" data-name="Path 118" d="M427.008,411.2a29.069,29.069,0,0,1-4.783-.393l1.819-10.875c6.5,1.082,14.107-1.626,19.87-7.078,6.492-6.145,9.846-14.8,8.754-22.6-1.077-7.67-6.042-14.438-11.3-21.6-1.154-1.573-2.3-3.142-3.409-4.715-9.409-13.383-12.207-25.835-8.091-36.01,3.387-8.367,11.022-13.824,16.6-17.81l30.6-21.884,6.413,8.969-30.6,21.884c-6.009,4.294-10.767,7.979-12.788,12.977-3.343,8.254,1.9,18.44,6.887,25.532,1.064,1.514,2.17,3.021,3.28,4.535,5.833,7.949,11.862,16.169,13.323,26.59,1.58,11.27-3.052,23.586-12.093,32.143C444.464,407.513,435.594,411.2,427.008,411.2Z" transform="translate(306.197 197.151)" fill="#d2b355"/>
    <path id="Path_119" data-name="Path 119" d="M240.751,186.543l-4.64-5.7a30.188,30.188,0,0,0,11.024-22.963c.011-1.509-.09-3.041-.2-4.664a56.386,56.386,0,0,1-.173-6.639c.9-17.772,17.367-30.357,32.408-33.176l1.352,7.225c-12.279,2.3-25.712,12.308-26.419,26.322a50.03,50.03,0,0,0,.165,5.783c.112,1.683.228,3.422.215,5.2A37.616,37.616,0,0,1,240.751,186.543Z" transform="translate(150.307 67.462)" fill="#c3a54c"/>
  </g>
</svg>
